HIERARCHY
ROOT Hips
{
	OFFSET 0.000000 0.000000 0.000000
	CHANNELS 6 Xposition Yposition Zposition Zrotation Yrotation Xrotation 
	JOINT LHipJoint
	{
		OFFSET 0.000000 0.000000 0.000000
		CHANNELS 3 Zrotation Yrotation Xrotation
		JOINT LeftUpLeg
		{
			OFFSET 1.363060 -1.794630 0.839290
			CHANNELS 3 Zrotation Yrotation Xrotation
			JOINT LeftLeg
			{
				OFFSET 2.448110 -6.726130 0.000000
				CHANNELS 3 Zrotation Yrotation Xrotation
				JOINT LeftFoot
				{
					OFFSET 2.562200 -7.039590 0.000000
					CHANNELS 3 Zrotation Yrotation Xrotation
					JOINT LeftToeBase
					{
						OFFSET 0.157640 -0.433110 2.322550
						CHANNELS 3 Zrotation Yrotation Xrotation
						End Site
						{
							OFFSET 0.000000 0.000000 0.000000
						}
					}
				}
			}
		}
	}
	JOINT RHipJoint
	{
		OFFSET 0.000000 0.000000 0.000000
		CHANNELS 3 Zrotation Yrotation Xrotation
		JOINT RightUpLeg
		{
			OFFSET -1.305520 -1.794630 0.839290
			CHANNELS 3 Zrotation Yrotation Xrotation
			JOINT RightLeg
			{
				OFFSET -2.542530 -6.985550 0.000000
				CHANNELS 3 Zrotation Yrotation Xrotation
				JOINT RightFoot
				{
					OFFSET -2.568260 -7.056230 0.000000
					CHANNELS 3 Zrotation Yrotation Xrotation
					JOINT RightToeBase
					{
						OFFSET -0.164730 -0.452590 2.363150
						CHANNELS 3 Zrotation Yrotation Xrotation
						End Site
						{
							OFFSET 0.000000 0.000000 0.000000
						}
					}
				}
			}
		}
	}
	JOINT LowerBack
	{
		OFFSET 0.000000 0.000000 0.000000
		CHANNELS 3 Zrotation Yrotation Xrotation
		JOINT Spine
		{
			OFFSET 0.028270 2.035590 -0.193380
			CHANNELS 3 Zrotation Yrotation Xrotation
			JOINT Spine1
			{
				OFFSET 0.056720 2.048850 -0.042750
				CHANNELS 3 Zrotation Yrotation Xrotation
				JOINT Neck
				{
					OFFSET 0.000000 0.000000 0.000000
					CHANNELS 3 Zrotation Yrotation Xrotation
					JOINT Neck1
					{
						OFFSET -0.054170 1.746240 0.172020
						CHANNELS 3 Zrotation Yrotation Xrotation
						JOINT Head
						{
							OFFSET 0.104070 1.761360 -0.123970
							CHANNELS 3 Zrotation Yrotation Xrotation
							End Site
							{
								OFFSET 0.000000 0.000000 0.000000
							}
						}
					}
				}
				JOINT LeftShoulder
				{
					OFFSET 0.000000 0.000000 0.000000
					CHANNELS 3 Zrotation Yrotation Xrotation
					JOINT LeftArm
					{
						OFFSET 3.362410 1.200890 -0.311210
						CHANNELS 3 Zrotation Yrotation Xrotation
						JOINT LeftForeArm
						{
							OFFSET 4.983000 -0.000000 -0.000000
							CHANNELS 3 Zrotation Yrotation Xrotation
							JOINT LeftHand
							{
								OFFSET 3.483560 -0.000000 -0.000000
								CHANNELS 3 Zrotation Yrotation Xrotation
								JOINT LeftFingerBase
								{
									OFFSET 0.000000 0.000000 0.000000
									CHANNELS 3 Zrotation Yrotation Xrotation
									JOINT LeftHandIndex1
									{
										OFFSET 0.715260 -0.000000 -0.000000
										CHANNELS 3 Zrotation Yrotation Xrotation
										End Site
										{
											OFFSET 0.000000 0.000000 0.000000
										}
									}
								}
								JOINT LThumb
								{
									OFFSET 0.000000 0.000000 0.000000
									CHANNELS 3 Zrotation Yrotation Xrotation
									End Site
									{
										OFFSET 0.000000 0.000000 0.000000
									}
								}
							}
						}
					}
				}
				JOINT RightShoulder
				{
					OFFSET 0.000000 0.000000 0.000000
					CHANNELS 3 Zrotation Yrotation Xrotation
					JOINT RightArm
					{
						OFFSET -3.136600 1.374050 -0.404650
						CHANNELS 3 Zrotation Yrotation Xrotation
						JOINT RightForeArm
						{
							OFFSET -5.241900 -0.000000 -0.000000
							CHANNELS 3 Zrotation Yrotation Xrotation
							JOINT RightHand
							{
								OFFSET -3.444170 -0.000000 -0.000000
								CHANNELS 3 Zrotation Yrotation Xrotation
								JOINT RightFingerBase
								{
									OFFSET 0.000000 0.000000 0.000000
									CHANNELS 3 Zrotation Yrotation Xrotation
									JOINT RightHandIndex1
									{
										OFFSET -0.622530 -0.000000 -0.000000
										CHANNELS 3 Zrotation Yrotation Xrotation
										End Site
										{
											OFFSET 0.000000 0.000000 0.000000
										}
									}
								}
								JOINT RThumb
								{
									OFFSET 0.000000 0.000000 0.000000
									CHANNELS 3 Zrotation Yrotation Xrotation
									End Site
									{
										OFFSET 0.000000 0.000000 0.000000
									}
								}
							}
						}
					}
				}
			}
		}
	}
}
MOTION
Frames: 8
Frame Time: 0.008333
-1.511899 16.813354 -2.252290 23.436205 84.771053 45.247542 -9.736264 0.458466 3.586452 -9.107674 1.803438 -46.819495 -2.910856 0.729055 25.611398 -0.343104 -3.778807 -2.570639 -0.145400 0.000001 -36.866899 10.940515 -2.930929 -0.695772 4.828929 -11.091872 -18.720291 -0.077619 -2.811141 49.479696 -3.463292 -18.571597 -6.246120 -1.060400 0.000000 -22.105900 -6.479992 -2.920925 -3.954704 -1.669344 -2.545961 -3.650953 -5.389852 -2.624295 -0.244975 16.533349 -11.574181 -7.303618 -1.682227 -0.127977 0.033050 0.000000 0.000000 0.000000 -2.119740 8.947291 0.748297 -74.356619 20.779628 2.404601 -0.192336 -89.589640 -0.061147 17.860337 2.962256 0.446879 -0.253468 0.172998 -0.000000 0.000000 0.000000 0.000000 0.000000 0.000000 0.000000 10.854690 -6.485229 0.421049 64.822734 19.978998 35.158316 178.766081 78.357170 -179.962501 3.484395 6.216102 0.206816 0.012963 -0.554456 -0.000000 0.000000 0.000000 0.000000 0.000000 0.000000 0.000000 
-1.320395 16.758658 -2.237191 24.571750 84.329006 46.415534 -9.678056 0.487773 3.502102 -9.392874 1.456901 -47.285128 -2.745305 0.947594 28.614429 -0.160109 -2.865665 -4.016002 -0.043300 0.000001 -35.193900 11.122732 -2.776587 -0.629957 3.934919 -10.771905 -19.731402 -0.223540 -2.964664 51.967823 -3.597354 -19.225914 -7.336200 -0.724300 0.000000 -18.951800 -6.521377 -3.020130 -3.950595 -1.684406 -2.640107 -3.655112 -5.481531 -2.716345 -0.283371 16.460677 -11.480805 -7.279204 -1.699073 -0.129338 0.038073 0.000000 0.000000 0.000000 -2.634786 8.923075 0.806990 -73.024717 19.380824 3.583785 -0.228278 -88.397260 -0.063467 18.718263 3.409731 0.544816 -0.264155 0.164641 -0.000000 0.000000 0.000000 0.000000 0.000000 0.000000 0.000000 10.742792 -6.456050 0.305591 65.278146 19.740483 34.432000 178.792288 78.262401 -179.964931 3.163158 6.300590 0.190225 0.015611 -0.560562 -0.000000 0.000000 0.000000 0.000000 0.000000 0.000000 0.000000 
-1.132779 16.717293 -2.217875 25.031802 83.747913 46.883121 -9.626517 0.519036 3.401271 -9.653352 1.109287 -47.305940 -2.600400 1.094983 30.984743 0.053833 -1.773792 -5.488982 0.024800 -0.000001 -34.038800 11.287830 -2.616729 -0.543770 3.052900 -10.217740 -20.737439 -0.371517 -3.116945 54.294076 -3.625565 -19.333294 -8.095829 -0.456300 -0.000000 -16.852201 -6.576532 -3.061449 -3.931926 -1.709493 -2.675094 -3.658356 -5.594807 -2.748664 -0.323900 16.352497 -11.380589 -7.237662 -1.725988 -0.131682 0.047237 0.000000 0.000000 0.000000 -3.120707 8.907952 0.867270 -71.605402 17.714710 4.917004 -0.266790 -87.074357 -0.065119 19.279436 3.840858 0.636829 -0.271281 0.157668 -0.000000 0.000000 0.000000 0.000000 0.000000 0.000000 0.000000 10.647568 -6.395357 0.177678 65.902205 19.352189 33.681251 178.846168 78.358914 -179.968380 2.741758 6.283040 0.164352 0.019898 -0.563108 -0.000000 0.000000 0.000000 0.000000 0.000000 0.000000 0.000000 
-0.948269 16.690059 -2.194337 24.822612 83.039139 46.649434 -9.583237 0.554969 3.281974 -9.891242 0.819377 -46.910622 -2.488807 1.175040 32.683082 0.288150 -0.575281 -6.950930 0.043300 -0.000000 -33.485000 11.431285 -2.458031 -0.438174 2.215720 -9.461243 -21.733183 -0.518640 -3.262898 56.424672 -3.557242 -18.935300 -8.544107 -0.276800 -0.000000 -15.726800 -6.639693 -3.047629 -3.900020 -1.742706 -2.654211 -3.659938 -5.726920 -2.724601 -0.363504 16.222224 -11.277623 -7.176728 -1.764656 -0.135185 0.061356 0.000000 0.000000 0.000000 -3.551340 8.886508 0.928121 -70.180946 15.851369 6.310983 -0.308689 -85.677170 -0.066092 19.506872 4.209284 0.709523 -0.274894 0.152807 0.000000 0.000000 0.000000 0.000000 0.000000 0.000000 0.000000 10.598148 -6.310856 0.043644 66.652568 18.848130 32.930952 178.923677 78.634479 -179.972861 2.214448 6.151717 0.129895 0.026084 -0.561827 -0.000000 0.000000 0.000000 0.000000 0.000000 0.000000 0.000000 
-0.765913 16.677016 -2.167385 23.941611 82.221154 45.707035 -9.556087 0.595314 3.144335 -10.084121 0.644877 -46.154717 -2.413366 1.197708 33.733459 0.531680 0.659782 -8.363262 0.006100 0.000000 -33.504401 11.542965 -2.307285 -0.314652 1.474658 -8.535875 -22.710286 -0.661613 -3.395062 58.325479 -3.408184 -18.107905 -8.702765 -0.188000 -0.000000 -15.532001 -6.683414 -2.981597 -3.858044 -1.777443 -2.582694 -3.660633 -5.872482 -2.649506 -0.402695 16.074358 -11.170431 -7.091815 -1.815885 -0.140010 0.082193 0.000000 0.000000 0.000000 -3.909149 8.837340 0.986855 -68.831891 13.886376 7.671376 -0.354112 -84.274383 -0.066370 19.393969 4.476378 0.752102 -0.275262 0.150492 0.000000 0.000000 0.000000 0.000000 0.000000 0.000000 0.000000 10.606606 -6.204818 -0.090474 67.481389 18.261697 32.203749 179.019231 79.070222 -179.978295 1.584874 5.903952 0.089051 0.034140 -0.556699 -0.000000 0.000000 0.000000 0.000000 0.000000 0.000000 0.000000 
-0.584817 16.677454 -2.137399 22.602359 81.315284 44.262059 -9.541534 0.640879 2.988348 -10.230516 0.610104 -45.080638 -2.371552 1.170879 34.181434 0.774629 1.884102 -9.675786 -0.082700 0.000000 -33.984600 11.628032 -2.167178 -0.179184 0.842960 -7.506310 -23.660600 -0.795374 -3.510866 59.971409 -3.196330 -16.937977 -8.605101 -0.174300 0.000000 -16.214100 -6.699294 -2.875043 -3.803676 -1.810611 -2.472859 -3.659298 -6.024783 -2.535625 -0.440249 15.915833 -11.063207 -6.981902 -1.880104 -0.146213 0.110313 0.000000 0.000000 0.000000 -4.162176 8.743851 1.039259 -67.630504 11.914814 8.923137 -0.402134 -82.929519 -0.065952 18.967787 4.617848 0.759371 -0.272806 0.150860 0.000000 0.000000 0.000000 0.000000 0.000000 0.000000 0.000000 10.687028 -6.089079 -0.219023 68.343115 17.635644 31.528963 179.126241 79.644513 -179.984515 0.863521 5.545873 0.045216 0.043983 -0.547995 -0.000000 0.000000 0.000000 0.000000 0.000000 0.000000 0.000000 
-0.404038 16.690201 -2.104972 20.978276 80.343764 42.485343 -9.539481 0.692344 2.816265 -10.326045 0.731680 -43.740373 -2.356977 1.104250 34.099674 1.005819 3.051520 -10.833163 -0.210300 -0.000000 -34.771200 11.688784 -2.038860 -0.037765 0.337520 -6.436781 -24.577328 -0.915178 -3.607699 61.344340 -2.944120 -15.535779 -8.297117 -0.210700 0.000000 -17.655400 -6.674108 -2.741034 -3.736924 -1.837737 -2.338836 -3.655459 -6.175904 -2.397099 -0.475371 15.748397 -10.960230 -6.847543 -1.956931 -0.153765 0.145926 0.000000 0.000000 0.000000 -4.285437 8.593913 1.080013 -66.633329 10.030121 10.009234 -0.450298 -81.705148 -0.064869 18.283931 4.630425 0.733436 -0.268021 0.153721 0.000000 0.000000 0.000000 0.000000 0.000000 0.000000 0.000000 10.841836 -5.975891 -0.337351 69.194816 17.010769 30.937242 179.237617 80.331746 -179.991259 0.072439 5.092898 0.002485 0.055302 -0.536204 -0.000000 0.000000 0.000000 0.000000 0.000000 0.000000 0.000000 
-0.222687 16.713665 -2.070606 19.243140 79.331047 40.551932 -9.549263 0.751312 2.631679 -10.375433 1.012806 -42.185992 -2.362056 1.007491 33.572785 1.213691 4.121665 -11.777801 -0.356800 0.000000 -35.701600 11.728987 -1.921838 0.103285 -0.034452 -5.393664 -25.457460 -1.016470 -3.684935 62.437360 -2.675107 -14.018523 -7.842572 -0.268701 0.000000 -19.641800 -6.601185 -2.595305 -3.658619 -1.855506 -2.196896 -3.648941 -6.318615 -2.250264 -0.508156 15.571415 -10.865073 -6.690723 -2.045508 -0.162571 0.188780 0.000000 0.000000 0.000000 -4.258452 8.377764 1.104137 -65.876311 8.315829 10.892543 -0.494879 -80.658911 -0.063209 17.417306 4.531543 0.682300 -0.261418 0.158655 0.000000 0.000000 0.000000 0.000000 0.000000 0.000000 0.000000 11.065674 -5.877107 -0.442266 70.004309 16.417011 30.457595 179.346797 81.103127 -179.998173 -0.753421 4.569030 -0.034849 0.067490 -0.522016 0.000000 0.000000 0.000000 0.000000 0.000000 0.000000 0.000000 
